<svg width="600" height="327" viewBox="0 0 6000 3270" xmlns="http://www.w3.org/2000/svg">
    <g transform="translate(0,3270) scale(1,-1)">
        <!-- Top path - Pink -->
        <path d="M3225 2505 c-5 -2 -91 -16 -190 -31 -175 -27 -181 -28 -213 -61 -32 -31 -34 -36 -27 -82 8 -59 1 -65 -90 -75 -81 -9 -113 -23 -130 -57 -19 -35 -19 -43 1 -84 22 -48 53 -55 151 -38 46 9 89 13 96 10 8 -3 17 -23 21 -45 7 -48 53 -92 94 -92 50 1 389 58 410 69 12 6 29 26 38 43 15 30 15 41 -11 192 -32 192 -43 222 -90 242 -35 14 -42 15 -60 9z" fill="#EC4899" stroke="none"/>
        
        <!-- Middle path - Purple -->
        <path d="M2936 1875 c-42 -22 -55 -44 -56 -92 0 -55 -16 -63 -129 -63 -85 0 -91 -1 -110 -26 -28 -36 -27 -86 2 -120 23 -26 27 -27 111 -25 107 2 126 -7 126 -59 0 -30 7 -48 29 -72 l29 -33 206 -3 c295 -4 296 -3 296 245 0 176 -9 217 -53 243 -29 18 -51 20 -227 20 -155 0 -201 -3 -224 -15z" fill="#8B5CF6" stroke="none"/>
        
        <!-- Bottom path - Blue -->
        <path d="M2888 1300 c-17 -12 -33 -40 -42 -68 -15 -53 -12 -53 -154 -37 -64 7 -75 6 -93 -11 -32 -29 -41 -62 -28 -101 13 -42 25 -48 128 -67 45 -9 87 -19 93 -22 6 -4 7 -26 3 -54 -6 -43 -4 -51 23 -81 28 -31 33 -33 230 -66 289 -48 281 -53 327 223 26 151 26 162 11 192 -9 17 -25 36 -36 42 -19 10 -275 55 -385 67 -41 4 -55 1 -77 -17z" fill="#3B82F6" stroke="none"/>
    </g>
</svg>
